<svg width="11" height="20" viewBox="0 0 11 20" fill="none" xmlns="http://www.w3.org/2000/svg">
<path opacity="0.969" fill-rule="evenodd" clip-rule="evenodd" d="M0.665481 0C0.861211 0 1.05694 0 1.25267 0C1.3597 0.0470695 1.46409 0.105663 1.56584 0.175781C4.63879 3.24219 7.71175 6.30859 10.7847 9.375C11.0718 9.79168 11.0718 10.2083 10.7847 10.625C7.71175 13.6914 4.63879 16.7578 1.56584 19.8242C1.46048 19.8869 1.35609 19.9455 1.25267 20C1.05694 20 0.861211 20 0.665481 20C0.167699 19.7883 -0.0476035 19.4107 0.0195729 18.8672C0.0547776 18.7095 0.120021 18.5662 0.215303 18.4375C3.03434 15.631 5.84633 12.8185 8.65125 10C5.84633 7.18152 3.03434 4.36902 0.215303 1.5625C-0.0717675 1.14582 -0.0717675 0.729179 0.215303 0.3125C0.350888 0.183399 0.500951 0.0792179 0.665481 0Z" fill="#5A57FF"/>
</svg>
