<svg width="30" height="30" viewBox="0 0 30 30" fill="none" xmlns="http://www.w3.org/2000/svg">
<rect width="30" height="30" rx="5" fill="#5A57FF"/>
<path opacity="0.932" fill-rule="evenodd" clip-rule="evenodd" d="M20.3066 4.36136C22.2823 4.31809 24.1782 4.68202 25.9941 5.45315C26.3296 5.56759 26.4397 5.7961 26.3242 6.1387C25.8775 7.56601 25.175 8.84402 24.2168 9.97269C23.7409 10.1541 23.5124 9.9933 23.5313 9.49026C24.3158 8.50018 24.9337 7.40839 25.3848 6.21487C25.3642 6.16687 25.3303 6.13301 25.2832 6.11331C22.5804 5.07947 19.8382 4.96098 17.0566 5.75784C16.7097 5.96943 16.4304 6.24873 16.2188 6.59573C15.9995 6.99982 15.8302 7.42301 15.7109 7.86526C15.4739 8.06839 15.237 8.06839 15 7.86526C14.9559 7.75959 14.9305 7.6496 14.9238 7.53519C15.0036 7.13219 15.1305 6.75135 15.3047 6.39261C14.5761 6.74974 13.8737 7.14752 13.1973 7.58597C12.5741 8.38039 12.2694 9.28602 12.2832 10.3028C12.2846 10.5423 12.3015 10.7792 12.334 11.0137C12.2586 11.4021 12.0386 11.529 11.6738 11.3946C11.5523 11.2954 11.4761 11.1685 11.4453 11.0137C11.4061 10.8208 11.3807 10.6262 11.3691 10.4297C11.4102 9.90845 11.4695 9.39216 11.5469 8.88089C11.176 9.20091 10.8206 9.53942 10.4805 9.89651C10.4074 9.98665 10.3566 10.0882 10.3281 10.2012C10.0677 11.5542 9.81377 12.9083 9.56641 14.2637C9.41382 14.6329 9.16839 14.7091 8.83008 14.4922C8.41505 14.1444 8.11879 13.7128 7.94141 13.1973C6.97154 14.2943 6.4468 15.5807 6.36719 17.0567C6.35597 17.4803 6.35597 17.9035 6.36719 18.3262C6.14518 18.6143 5.89127 18.6482 5.60547 18.4278C5.28919 16.104 5.91549 14.0727 7.48438 12.334C7.68476 12.1337 7.91328 11.9729 8.16993 11.8516C8.36087 11.7919 8.50473 11.8511 8.60157 12.0293C8.63986 12.4125 8.72451 12.785 8.85547 13.1465C9.09719 12.035 9.31723 10.9178 9.51563 9.79495C11.876 6.89987 14.9144 5.14791 18.6309 4.53909C19.1958 4.46594 19.7544 4.40669 20.3066 4.36136Z" fill="white"/>
<path opacity="0.93" fill-rule="evenodd" clip-rule="evenodd" d="M18.4785 6.87332C19.018 6.84524 19.1957 7.08224 19.0117 7.58426C14.395 10.6774 10.4765 14.4945 7.25586 19.0354C8.48253 19.4497 9.71819 19.5004 10.9629 19.1878C10.5184 18.7897 10.2306 18.2989 10.0996 17.7151C10.1452 17.3533 10.3483 17.2179 10.709 17.3089C11.7313 17.7677 12.7808 17.8524 13.8574 17.5628C14.2398 17.383 14.5953 17.1629 14.9238 16.9026C15.9883 16.0245 17.0378 15.1274 18.0723 14.2112C17.012 13.9652 16.1741 13.3981 15.5586 12.51C15.4853 12.2708 15.5445 12.0761 15.7363 11.9261C16.4947 12.0056 17.2564 12.0648 18.0215 12.1038C19.4245 12.1638 20.5587 11.6475 21.4238 10.555C20.5793 10.6513 19.733 10.6513 18.8848 10.555C18.7104 10.4773 18.6258 10.3419 18.6309 10.1487C18.643 9.85728 18.7953 9.71342 19.0879 9.71707C20.2597 9.8652 21.3939 9.72134 22.4902 9.28543C22.9304 9.20099 23.125 9.37872 23.0742 9.81864C22.5475 10.6755 21.8958 11.4288 21.1191 12.0784C20.422 12.5761 19.6433 12.8638 18.7832 12.9417C18.3093 12.9586 17.8353 12.9756 17.3613 12.9925C17.6589 13.1707 17.9805 13.2892 18.3262 13.3479C18.6702 13.3519 19.0087 13.3858 19.3418 13.4495C19.5507 13.6277 19.593 13.8393 19.4688 14.0843C17.9947 15.5081 16.4459 16.8369 14.8223 18.0706C14.3772 18.3205 13.9033 18.4898 13.4004 18.5784C12.7874 18.6141 12.178 18.5972 11.5723 18.5276C11.812 18.7532 12.0744 18.9479 12.3594 19.1116C12.4696 19.3227 12.4442 19.5174 12.2832 19.6956C10.4548 20.4312 8.61822 20.4565 6.77344 19.7718C5.90104 21.0758 5.10546 22.43 4.38672 23.8343C4.13093 24.0989 3.87702 24.0989 3.625 23.8343C3.59115 23.6819 3.59115 23.5296 3.625 23.3772C7.15531 16.6049 12.1065 11.1037 18.4785 6.87332Z" fill="white"/>
</svg>
