<svg width="11" height="20" viewBox="0 0 11 20" fill="none" xmlns="http://www.w3.org/2000/svg">
<path opacity="0.969" fill-rule="evenodd" clip-rule="evenodd" d="M10.3345 20C10.1388 20 9.94306 20 9.74733 20C9.6403 19.9529 9.53591 19.8943 9.43416 19.8242C6.36121 16.7578 3.28825 13.6914 0.215293 10.625C-0.071764 10.2083 -0.071764 9.79168 0.215293 9.375C3.28825 6.30859 6.36121 3.24219 9.43416 0.175781C9.53952 0.113093 9.64391 0.0544993 9.74733 0C9.94306 0 10.1388 0 10.3345 0C10.8323 0.211732 11.0476 0.589336 10.9804 1.13281C10.9452 1.29055 10.88 1.43377 10.7847 1.5625C7.96566 4.36902 5.15367 7.18152 2.34875 10C5.15367 12.8185 7.96566 15.631 10.7847 18.4375C11.0718 18.8542 11.0718 19.2708 10.7847 19.6875C10.6491 19.8166 10.499 19.9208 10.3345 20Z" fill="#5A57FF"/>
</svg>
