<svg width="30" height="30" viewBox="0 0 30 30" fill="none" xmlns="http://www.w3.org/2000/svg">
<g clip-path="url(#clip0_697_535)">
<path opacity="0.946" fill-rule="evenodd" clip-rule="evenodd" d="M29.9707 14.6777C29.9707 14.873 29.9707 15.0684 29.9707 15.2637C26.5401 20.8089 21.5401 23.6995 14.9707 23.9355C8.40129 23.6995 3.40131 20.8089 -0.0292969 15.2637C-0.0292969 15.0684 -0.0292969 14.873 -0.0292969 14.6777C3.40131 9.13248 8.40129 6.24187 14.9707 6.00586C21.5401 6.24187 26.5401 9.13248 29.9707 14.6777ZM13.6816 7.35352C20.0147 7.10689 24.9463 9.58734 28.4766 14.7949C28.5938 14.9121 28.5938 15.0293 28.4766 15.1465C24.792 20.5577 19.665 23.0089 13.0957 22.5C8.02477 21.773 4.11853 19.2632 1.37695 14.9707C4.26146 10.488 8.36303 7.949 13.6816 7.35352ZM14.502 10.6348C16.5962 10.554 18.0904 11.4524 18.9844 13.3301C19.6988 15.5617 19.1031 17.3488 17.1973 18.6914C15.3934 19.6346 13.6942 19.4784 12.0996 18.2227C10.5066 16.6034 10.2234 14.7772 11.25 12.7441C12.0244 11.5612 13.1084 10.8581 14.502 10.6348Z" fill="black"/>
<path opacity="0.948" fill-rule="evenodd" clip-rule="evenodd" d="M14.209 9.34565C16.7103 9.14608 18.6146 10.1031 19.9219 12.2167C20.7517 13.9086 20.8103 15.6273 20.0977 17.373C18.6185 20.0286 16.3822 21.0345 13.3887 20.3906C11.1301 19.6341 9.79216 18.0814 9.37503 15.7324C9.14681 13.2299 10.094 11.3256 12.2168 10.0195C12.8582 9.70483 13.5223 9.48018 14.209 9.34565ZM14.502 10.6347C13.1084 10.858 12.0245 11.5611 11.25 12.7441C10.2235 14.7771 10.5067 16.6033 12.0996 18.2226C13.6942 19.4784 15.3934 19.6346 17.1973 18.6914C19.1031 17.3488 19.6988 15.5617 18.9844 13.33C18.0904 11.4524 16.5962 10.554 14.502 10.6347Z" fill="black"/>
</g>
<defs>
<clipPath id="clip0_697_535">
<rect width="30" height="30" fill="white"/>
</clipPath>
</defs>
</svg>
