<svg width="30" height="30" viewBox="0 0 30 30" fill="none" xmlns="http://www.w3.org/2000/svg">
<path opacity="0.963" fill-rule="evenodd" clip-rule="evenodd" d="M1.49412 12.1581C1.82255 12.1235 2.13505 12.1723 2.43162 12.3046C4.43356 14.4478 6.75777 16.147 9.40427 17.4023C12.1136 18.6785 14.9261 18.991 17.8418 18.3398C20.788 17.4921 23.4052 16.0663 25.6933 14.0624C26.3166 13.4978 26.9221 12.9119 27.5097 12.3046C28.5859 11.9358 29.084 12.3167 29.0039 13.4472C28.3301 14.2773 27.5781 15.0292 26.748 15.7031C25.7522 16.5131 24.717 17.2651 23.6426 17.9589C24.6183 18.964 25.6046 19.9601 26.6015 20.9472C26.8466 21.4579 26.7782 21.9169 26.3965 22.3242C26.0058 22.5195 25.6152 22.5195 25.2246 22.3242C24.082 21.1816 22.9394 20.039 21.7969 18.8964C19.9674 19.848 18.024 20.4144 15.9668 20.5956C15.9766 21.9239 15.9668 23.2521 15.9375 24.58C15.6988 25.1828 15.2594 25.4074 14.6191 25.2538C14.3304 25.1409 14.1449 24.9359 14.0625 24.6386C14.0332 23.2911 14.0234 21.9434 14.0332 20.5956C11.6327 20.3586 9.37685 19.6555 7.2656 18.4863C6.26212 19.4311 5.27579 20.3979 4.30662 21.3867C3.88281 21.597 3.47265 21.5775 3.07615 21.3281C2.77562 20.9722 2.70726 20.5718 2.87107 20.1269C3.72956 19.2196 4.5987 18.3211 5.47849 17.4316C3.87637 16.3482 2.40176 15.0983 1.05466 13.6816C0.742786 13.0297 0.88927 12.5218 1.49412 12.1581Z" fill="black"/>
</svg>
