<svg width="30" height="30" viewBox="0 0 30 30" fill="none" xmlns="http://www.w3.org/2000/svg">
<g clip-path="url(#clip0_697_540)">
<path opacity="0.973" fill-rule="evenodd" clip-rule="evenodd" d="M11.1621 -0.0292969C13.7012 -0.0292969 16.2403 -0.0292969 18.7793 -0.0292969C20.2562 0.324445 21.1839 1.24242 21.5625 2.72461C21.6326 3.34766 21.6619 3.97266 21.6504 4.59961C23.8575 4.58984 26.0646 4.59961 28.2715 4.62891C29.044 4.97451 29.249 5.53115 28.8868 6.29883C28.7541 6.47068 28.588 6.59766 28.3887 6.67969C23.9083 6.7476 19.4259 6.77689 14.9414 6.76758C10.476 6.77701 6.01311 6.74771 1.55277 6.67969C0.97194 6.38725 0.766861 5.92828 0.937539 5.30273C1.05256 4.93763 1.2967 4.71302 1.66996 4.62891C3.87691 4.59961 6.08395 4.58984 8.29105 4.59961C8.21863 3.69602 8.32604 2.81712 8.61332 1.96289C9.15584 0.896842 10.0054 0.232777 11.1621 -0.0292969ZM11.6895 2.08008C13.977 2.05254 16.2621 2.08184 18.545 2.16797C19.0662 2.37649 19.3688 2.75735 19.4532 3.31055C19.4825 3.73979 19.4922 4.16948 19.4825 4.59961C16.4747 4.59961 13.4668 4.59961 10.459 4.59961C10.4493 4.14997 10.459 3.70075 10.4883 3.25195C10.6195 2.57752 11.0198 2.18689 11.6895 2.08008Z" fill="black"/>
<path opacity="0.975" fill-rule="evenodd" clip-rule="evenodd" d="M23.6426 29.9707C17.8613 29.9707 12.0801 29.9707 6.29883 29.9707C4.84292 29.6181 3.97378 28.7001 3.69141 27.2168C3.65234 21.084 3.65234 14.9512 3.69141 8.81836C3.83278 8.29629 4.17457 8.02283 4.7168 7.99805C5.3032 8.04721 5.66453 8.35969 5.80078 8.93555C5.82031 14.9707 5.83985 21.0059 5.85938 27.041C6.01635 27.4714 6.31904 27.7351 6.76758 27.832C12.2363 27.8711 17.7051 27.8711 23.1738 27.832C23.6459 27.7311 23.9486 27.4479 24.082 26.9824C24.1015 20.9473 24.1211 14.9121 24.1406 8.87695C24.3921 8.16029 24.8902 7.89662 25.6348 8.08594C25.9564 8.23055 26.1615 8.47471 26.25 8.81836C26.2891 14.9316 26.2891 21.0449 26.25 27.1582C25.9529 28.6366 25.0838 29.5741 23.6426 29.9707Z" fill="black"/>
<path opacity="0.965" fill-rule="evenodd" clip-rule="evenodd" d="M9.99025 9.99022C10.6548 9.88517 11.1138 10.1391 11.3672 10.7519C11.4063 15.3418 11.4063 19.9317 11.3672 24.5215C11.1004 25.2261 10.6024 25.4703 9.87306 25.2539C9.53474 25.0953 9.32966 24.8316 9.25783 24.4629C9.21875 19.9317 9.21875 15.4004 9.25783 10.8691C9.34466 10.4409 9.58882 10.1479 9.99025 9.99022Z" fill="black"/>
<path opacity="0.987" fill-rule="evenodd" clip-rule="evenodd" d="M14.6777 9.99024C15.3016 9.89667 15.741 10.131 15.9961 10.6934C16.0352 15.3223 16.0352 19.9512 15.9961 24.5801C15.6385 25.3504 15.0819 25.5359 14.3262 25.1367C14.1288 24.9982 14.0018 24.8126 13.9453 24.5801C13.9062 19.9707 13.9062 15.3614 13.9453 10.752C14.0832 10.3896 14.3274 10.1357 14.6777 9.99024Z" fill="black"/>
<path opacity="0.963" fill-rule="evenodd" clip-rule="evenodd" d="M19.3067 9.99025C20.0584 9.89134 20.5173 10.2038 20.6836 10.9277C20.7227 15.42 20.7227 19.9121 20.6836 24.4043C20.3968 25.3077 19.8206 25.5518 18.9551 25.1367C18.7613 24.974 18.6344 24.7689 18.5742 24.5215C18.5352 19.9512 18.5352 15.3809 18.5742 10.8106C18.6887 10.4133 18.9328 10.1398 19.3067 9.99025Z" fill="black"/>
</g>
<defs>
<clipPath id="clip0_697_540">
<rect width="30" height="30" fill="white"/>
</clipPath>
</defs>
</svg>
