<svg width="30" height="30" viewBox="0 0 30 30" fill="none" xmlns="http://www.w3.org/2000/svg">
<rect width="30" height="30" rx="5" fill="#5A57FF"/>
<g clip-path="url(#clip0_339_328)">
<path opacity="0.973" fill-rule="evenodd" clip-rule="evenodd" d="M12.4414 4.98047C14.134 4.98047 15.8268 4.98047 17.5195 4.98047C18.504 5.2163 19.1225 5.82828 19.3749 6.81641C19.4216 7.23177 19.4412 7.64844 19.4335 8.06641C20.9049 8.05989 22.3763 8.06641 23.8476 8.08594C24.3626 8.31634 24.4993 8.68743 24.2578 9.19922C24.1693 9.31379 24.0586 9.39844 23.9257 9.45312C20.9388 9.4984 17.9505 9.51793 14.9609 9.51172C11.9839 9.51801 9.00866 9.49848 6.0351 9.45312C5.64788 9.25816 5.51116 8.95219 5.62494 8.53516C5.70162 8.29175 5.86438 8.14202 6.11323 8.08594C7.58452 8.06641 9.05588 8.05989 10.5273 8.06641C10.479 7.46402 10.5506 6.87808 10.7421 6.30859C11.1038 5.59789 11.6702 5.15518 12.4414 4.98047ZM12.7929 6.38672C14.3179 6.36836 15.8414 6.38789 17.3632 6.44531C17.7107 6.58433 17.9125 6.83823 17.9687 7.20703C17.9882 7.4932 17.9947 7.77965 17.9882 8.06641C15.983 8.06641 13.9778 8.06641 11.9726 8.06641C11.9661 7.76664 11.9726 7.46716 11.9921 7.16797C12.0796 6.71835 12.3465 6.45793 12.7929 6.38672Z" fill="white"/>
<path opacity="0.975" fill-rule="evenodd" clip-rule="evenodd" d="M20.7617 24.9805C16.9075 24.9805 13.0534 24.9805 9.19922 24.9805C8.22861 24.7454 7.64918 24.1334 7.46094 23.1445C7.4349 19.056 7.4349 14.9675 7.46094 10.8789C7.55518 10.5309 7.78305 10.3486 8.14453 10.332C8.53547 10.3648 8.77636 10.5731 8.86719 10.957C8.88021 14.9805 8.89323 19.0039 8.90625 23.0273C9.0109 23.3143 9.2127 23.49 9.51172 23.5547C13.1575 23.5807 16.8034 23.5807 20.4492 23.5547C20.7639 23.4874 20.9657 23.2986 21.0547 22.9883C21.0677 18.9648 21.0807 14.9414 21.0938 10.918C21.2614 10.4402 21.5934 10.2644 22.0898 10.3906C22.3043 10.487 22.441 10.6498 22.5 10.8789C22.5261 14.9544 22.5261 19.03 22.5 23.1055C22.302 24.0911 21.7225 24.7161 20.7617 24.9805Z" fill="white"/>
<path opacity="0.965" fill-rule="evenodd" clip-rule="evenodd" d="M11.6602 11.6601C12.1032 11.5901 12.4092 11.7594 12.5781 12.168C12.6042 15.2278 12.6042 18.2878 12.5781 21.3476C12.4003 21.8174 12.0683 21.9802 11.582 21.8359C11.3565 21.7302 11.2198 21.5544 11.1719 21.3086C11.1458 18.2878 11.1458 15.2669 11.1719 12.2461C11.2298 11.9606 11.3925 11.7653 11.6602 11.6601Z" fill="white"/>
<path opacity="0.987" fill-rule="evenodd" clip-rule="evenodd" d="M14.7852 11.6601C15.2011 11.5977 15.494 11.7539 15.6641 12.1288C15.6901 15.2148 15.6901 18.3007 15.6641 21.3866C15.4257 21.9002 15.0546 22.0238 14.5508 21.7577C14.4192 21.6654 14.3345 21.5416 14.2969 21.3866C14.2708 18.3137 14.2708 15.2408 14.2969 12.1679C14.3888 11.9263 14.5516 11.757 14.7852 11.6601Z" fill="white"/>
<path opacity="0.963" fill-rule="evenodd" clip-rule="evenodd" d="M17.8711 11.6601C18.3722 11.5941 18.6782 11.8025 18.7891 12.2851C18.8151 15.2799 18.8151 18.2747 18.7891 21.2695C18.5979 21.8717 18.2138 22.0345 17.6367 21.7577C17.5075 21.6492 17.4229 21.5125 17.3828 21.3476C17.3568 18.3007 17.3568 15.2538 17.3828 12.207C17.4592 11.9421 17.6219 11.7598 17.8711 11.6601Z" fill="white"/>
</g>
<defs>
<clipPath id="clip0_339_328">
<rect width="20" height="20" fill="white" transform="translate(5 5)"/>
</clipPath>
</defs>
</svg>
